<svg viewBox="0 0 192 192" xmlns="http://www.w3.org/2000/svg">
  <defs>
    <linearGradient id="gradient192" x1="0%" y1="0%" x2="100%" y2="100%">
      <stop offset="0%" style="stop-color:#e056fd;stop-opacity:1" />
      <stop offset="100%" style="stop-color:#b820e8;stop-opacity:1" />
    </linearGradient>
  </defs>
  <!-- Background circle -->
  <circle cx="96" cy="96" r="96" fill="url(#gradient192)"/>

  <!-- Inner circle -->
  <circle cx="96" cy="96" r="88" fill="#0f0f23"/>

  <!-- Letter blocks -->
  <rect x="40" y="50" width="30" height="30" rx="6" fill="#e056fd" opacity="0.8"/>
  <text x="55" y="72" font-size="18" font-weight="bold" fill="white" text-anchor="middle" font-family="Arial">W</text>

  <rect x="81" y="50" width="30" height="30" rx="6" fill="#d441e8" opacity="0.8"/>
  <text x="96" y="72" font-size="18" font-weight="bold" fill="white" text-anchor="middle" font-family="Arial">O</text>

  <rect x="122" y="50" width="30" height="30" rx="6" fill="#c82ce3" opacity="0.8"/>
  <text x="137" y="72" font-size="18" font-weight="bold" fill="white" text-anchor="middle" font-family="Arial">R</text>

  <rect x="40" y="95" width="30" height="30" rx="6" fill="#b820e8" opacity="0.8"/>
  <text x="55" y="117" font-size="18" font-weight="bold" fill="white" text-anchor="middle" font-family="Arial">D</text>

  <rect x="81" y="95" width="30" height="30" rx="6" fill="#a61ad3" opacity="0.8"/>
  <text x="96" y="117" font-size="18" font-weight="bold" fill="white" text-anchor="middle" font-family="Arial">S</text>

  <rect x="122" y="95" width="30" height="30" rx="6" fill="#9414be" opacity="0.8"/>
  <text x="137" y="117" font-size="18" font-weight="bold" fill="white" text-anchor="middle" font-family="Arial">C</text>

  <!-- Decorative element -->
  <circle cx="96" cy="160" r="8" fill="#e056fd" opacity="0.6"/>
  <circle cx="75" cy="150" r="5" fill="#d441e8" opacity="0.4"/>
  <circle cx="117" cy="150" r="5" fill="#c82ce3" opacity="0.4"/>
</svg>
